<svg width="1049" height="756" xmlns="http://www.w3.org/2000/svg"><g><path d="M-87,-75L-127,232L-27,42Z" fill="#f9ffff" stroke="#f9ffff" fill-opacity="1" stroke-opacity="1"/><path d="M-87,-75L-27,42L12,11Z" fill="#fcfcff" stroke="#fcfcff" fill-opacity="1" stroke-opacity="1"/><path d="M-87,-75L12,11L55,-99Z" fill="#f8faff" stroke="#f8faff" fill-opacity="1" stroke-opacity="1"/><path d="M55,-99L12,11L266,-12Z" fill="#e8f0f9" stroke="#e8f0f9" fill-opacity="1" stroke-opacity="1"/><path d="M55,-99L266,-12L382,-41Z" fill="#d7e8f3" stroke="#d7e8f3" fill-opacity="1" stroke-opacity="1"/><path d="M55,-99L382,-41L479,-98Z" fill="#cee4f0" stroke="#cee4f0" fill-opacity="1" stroke-opacity="1"/><path d="M266,-12L12,11L234,84Z" fill="#ddecf6" stroke="#ddecf6" fill-opacity="1" stroke-opacity="1"/><path d="M266,-12L234,84L444,80Z" fill="#c8e3f0" stroke="#c8e3f0" fill-opacity="1" stroke-opacity="1"/><path d="M266,-12L444,80L382,-41Z" fill="#c3dfee" stroke="#c3dfee" fill-opacity="1" stroke-opacity="1"/><path d="M382,-41L444,80L479,-98Z" fill="#b8d8eb" stroke="#b8d8eb" fill-opacity="1" stroke-opacity="1"/><path d="M479,-98L444,80L545,77Z" fill="#aed3e9" stroke="#aed3e9" fill-opacity="1" stroke-opacity="1"/><path d="M479,-98L545,77L630,-50Z" fill="#a7cde5" stroke="#a7cde5" fill-opacity="1" stroke-opacity="1"/><path d="M479,-98L630,-50L833,-60Z" fill="#9bc3e0" stroke="#9bc3e0" fill-opacity="1" stroke-opacity="1"/><path d="M479,-98L833,-60L1003,-92Z" fill="#8eb5d8" stroke="#8eb5d8" fill-opacity="1" stroke-opacity="1"/><path d="M630,-50L545,77L683,111Z" fill="#9bc7e2" stroke="#9bc7e2" fill-opacity="1" stroke-opacity="1"/><path d="M630,-50L683,111L833,-60Z" fill="#94bcdc" stroke="#94bcdc" fill-opacity="1" stroke-opacity="1"/><path d="M833,-60L683,111L777,118Z" fill="#8ab6d9" stroke="#8ab6d9" fill-opacity="1" stroke-opacity="1"/><path d="M833,-60L777,118L914,104Z" fill="#84abd0" stroke="#84abd0" fill-opacity="1" stroke-opacity="1"/><path d="M833,-60L914,104L1003,-92Z" fill="#82a0c8" stroke="#82a0c8" fill-opacity="1" stroke-opacity="1"/><path d="M1003,-92L914,104L1172,5Z" fill="#7f8fbb" stroke="#7f8fbb" fill-opacity="1" stroke-opacity="1"/><path d="M1003,-92L1172,5L1157,-66Z" fill="#8083b2" stroke="#8083b2" fill-opacity="1" stroke-opacity="1"/><path d="M-27,42L-127,232L117,241Z" fill="#e1f6ff" stroke="#e1f6ff" fill-opacity="1" stroke-opacity="1"/><path d="M-27,42L117,241L12,11Z" fill="#eaf7fd" stroke="#eaf7fd" fill-opacity="1" stroke-opacity="1"/><path d="M12,11L117,241L234,84Z" fill="#dceff9" stroke="#dceff9" fill-opacity="1" stroke-opacity="1"/><path d="M234,84L117,241L291,254Z" fill="#bee4f4" stroke="#bee4f4" fill-opacity="1" stroke-opacity="1"/><path d="M234,84L291,254L329,239Z" fill="#b5e0f1" stroke="#b5e0f1" fill-opacity="1" stroke-opacity="1"/><path d="M234,84L329,239L444,80Z" fill="#b9e0ef" stroke="#b9e0ef" fill-opacity="1" stroke-opacity="1"/><path d="M444,80L329,239L539,170Z" fill="#a2d4eb" stroke="#a2d4eb" fill-opacity="1" stroke-opacity="1"/><path d="M444,80L539,170L545,77Z" fill="#a4d1e8" stroke="#a4d1e8" fill-opacity="1" stroke-opacity="1"/><path d="M545,77L539,170L683,111Z" fill="#96c9e3" stroke="#96c9e3" fill-opacity="1" stroke-opacity="1"/><path d="M683,111L539,170L652,236Z" fill="#86c2e1" stroke="#86c2e1" fill-opacity="1" stroke-opacity="1"/><path d="M683,111L652,236L777,118Z" fill="#81badd" stroke="#81badd" fill-opacity="1" stroke-opacity="1"/><path d="M777,118L652,236L831,236Z" fill="#73b2da" stroke="#73b2da" fill-opacity="1" stroke-opacity="1"/><path d="M777,118L831,236L914,104Z" fill="#75a8d0" stroke="#75a8d0" fill-opacity="1" stroke-opacity="1"/><path d="M914,104L831,236L957,179Z" fill="#6c9eca" stroke="#6c9eca" fill-opacity="1" stroke-opacity="1"/><path d="M914,104L957,179L1172,5Z" fill="#7791bd" stroke="#7791bd" fill-opacity="1" stroke-opacity="1"/><path d="M1172,5L957,179L1175,175Z" fill="#7484b3" stroke="#7484b3" fill-opacity="1" stroke-opacity="1"/><path d="M-127,232L-132,703L-105,521Z" fill="#9dcdf1" stroke="#9dcdf1" fill-opacity="1" stroke-opacity="1"/><path d="M-127,232L-105,521L-73,333Z" fill="#b7e1fc" stroke="#b7e1fc" fill-opacity="1" stroke-opacity="1"/><path d="M-127,232L-73,333L117,241Z" fill="#cbecff" stroke="#cbecff" fill-opacity="1" stroke-opacity="1"/><path d="M117,241L-73,333L119,432Z" fill="#addbfb" stroke="#addbfb" fill-opacity="1" stroke-opacity="1"/><path d="M117,241L119,432L211,392Z" fill="#9cd1f5" stroke="#9cd1f5" fill-opacity="1" stroke-opacity="1"/><path d="M117,241L211,392L291,254Z" fill="#a3d7f5" stroke="#a3d7f5" fill-opacity="1" stroke-opacity="1"/><path d="M291,254L211,392L419,399Z" fill="#88c9ee" stroke="#88c9ee" fill-opacity="1" stroke-opacity="1"/><path d="M291,254L419,399L329,239Z" fill="#8eccef" stroke="#8eccef" fill-opacity="1" stroke-opacity="1"/><path d="M329,239L419,399L539,170Z" fill="#88c9ec" stroke="#88c9ec" fill-opacity="1" stroke-opacity="1"/><path d="M539,170L419,399L540,380Z" fill="#70bbe8" stroke="#70bbe8" fill-opacity="1" stroke-opacity="1"/><path d="M539,170L540,380L652,236Z" fill="#75bde4" stroke="#75bde4" fill-opacity="1" stroke-opacity="1"/><path d="M652,236L540,380L739,416Z" fill="#57a9de" stroke="#57a9de" fill-opacity="1" stroke-opacity="1"/><path d="M652,236L739,416L831,236Z" fill="#59a6db" stroke="#59a6db" fill-opacity="1" stroke-opacity="1"/><path d="M831,236L739,416L786,427Z" fill="#4595d3" stroke="#4595d3" fill-opacity="1" stroke-opacity="1"/><path d="M831,236L786,427L1018,307Z" fill="#458dcc" stroke="#458dcc" fill-opacity="1" stroke-opacity="1"/><path d="M831,236L1018,307L957,179Z" fill="#5892c6" stroke="#5892c6" fill-opacity="1" stroke-opacity="1"/><path d="M957,179L1018,307L1175,175Z" fill="#5d85b9" stroke="#5d85b9" fill-opacity="1" stroke-opacity="1"/><path d="M1175,175L1018,307L1103,344Z" fill="#4d74b4" stroke="#4d74b4" fill-opacity="1" stroke-opacity="1"/><path d="M1175,175L1103,344L1149,608Z" fill="#3460aa" stroke="#3460aa" fill-opacity="1" stroke-opacity="1"/><path d="M-73,333L-105,521L119,432Z" fill="#a2d3f6" stroke="#a2d3f6" fill-opacity="1" stroke-opacity="1"/><path d="M119,432L-105,521L100,587Z" fill="#8bbfec" stroke="#8bbfec" fill-opacity="1" stroke-opacity="1"/><path d="M119,432L100,587L167,582Z" fill="#7bb4e5" stroke="#7bb4e5" fill-opacity="1" stroke-opacity="1"/><path d="M119,432L167,582L211,392Z" fill="#82bdea" stroke="#82bdea" fill-opacity="1" stroke-opacity="1"/><path d="M211,392L167,582L326,575Z" fill="#70b1e2" stroke="#70b1e2" fill-opacity="1" stroke-opacity="1"/><path d="M211,392L326,575L419,399Z" fill="#6fb6e4" stroke="#6fb6e4" fill-opacity="1" stroke-opacity="1"/><path d="M419,399L326,575L550,533Z" fill="#53a3db" stroke="#53a3db" fill-opacity="1" stroke-opacity="1"/><path d="M419,399L550,533L540,380Z" fill="#54a8de" stroke="#54a8de" fill-opacity="1" stroke-opacity="1"/><path d="M540,380L550,533L673,471Z" fill="#449cd7" stroke="#449cd7" fill-opacity="1" stroke-opacity="1"/><path d="M540,380L673,471L739,416Z" fill="#459cd7" stroke="#459cd7" fill-opacity="1" stroke-opacity="1"/><path d="M739,416L673,471L758,463Z" fill="#3890d1" stroke="#3890d1" fill-opacity="1" stroke-opacity="1"/><path d="M739,416L758,463L786,427Z" fill="#368ecf" stroke="#368ecf" fill-opacity="1" stroke-opacity="1"/><path d="M786,427L758,463L951,545Z" fill="#287bc3" stroke="#287bc3" fill-opacity="1" stroke-opacity="1"/><path d="M786,427L951,545L1018,307Z" fill="#2b78bf" stroke="#2b78bf" fill-opacity="1" stroke-opacity="1"/><path d="M1018,307L951,545L1103,344Z" fill="#2f6cb6" stroke="#2f6cb6" fill-opacity="1" stroke-opacity="1"/><path d="M1103,344L951,545L1076,570Z" fill="#1d5bab" stroke="#1d5bab" fill-opacity="1" stroke-opacity="1"/><path d="M1103,344L1076,570L1149,608Z" fill="#1a4da2" stroke="#1a4da2" fill-opacity="1" stroke-opacity="1"/><path d="M-105,521L-132,703L100,587Z" fill="#90b1e0" stroke="#90b1e0" fill-opacity="1" stroke-opacity="1"/><path d="M100,587L-132,703L106,703Z" fill="#859dd3" stroke="#859dd3" fill-opacity="1" stroke-opacity="1"/><path d="M100,587L106,703L167,582Z" fill="#799fd6" stroke="#799fd6" fill-opacity="1" stroke-opacity="1"/><path d="M167,582L106,703L280,744Z" fill="#708ec9" stroke="#708ec9" fill-opacity="1" stroke-opacity="1"/><path d="M167,582L280,744L326,575Z" fill="#6794cd" stroke="#6794cd" fill-opacity="1" stroke-opacity="1"/><path d="M326,575L280,744L400,728Z" fill="#5a82c1" stroke="#5a82c1" fill-opacity="1" stroke-opacity="1"/><path d="M326,575L400,728L466,649Z" fill="#5085c5" stroke="#5085c5" fill-opacity="1" stroke-opacity="1"/><path d="M326,575L466,649L550,533Z" fill="#4990cf" stroke="#4990cf" fill-opacity="1" stroke-opacity="1"/><path d="M550,533L466,649L705,660Z" fill="#377dc3" stroke="#377dc3" fill-opacity="1" stroke-opacity="1"/><path d="M550,533L705,660L673,471Z" fill="#2f84ca" stroke="#2f84ca" fill-opacity="1" stroke-opacity="1"/><path d="M673,471L705,660L758,463Z" fill="#2a82ca" stroke="#2a82ca" fill-opacity="1" stroke-opacity="1"/><path d="M758,463L705,660L795,680Z" fill="#236dbb" stroke="#236dbb" fill-opacity="1" stroke-opacity="1"/><path d="M758,463L795,680L951,545Z" fill="#1d6ab9" stroke="#1d6ab9" fill-opacity="1" stroke-opacity="1"/><path d="M951,545L795,680L990,634Z" fill="#1551a6" stroke="#1551a6" fill-opacity="1" stroke-opacity="1"/><path d="M951,545L990,634L1076,570Z" fill="#134ca3" stroke="#134ca3" fill-opacity="1" stroke-opacity="1"/><path d="M1076,570L990,634L1149,608Z" fill="#133d97" stroke="#133d97" fill-opacity="1" stroke-opacity="1"/><path d="M-132,703L-40,996L-90,792Z" fill="#8e80b6" stroke="#8e80b6" fill-opacity="1" stroke-opacity="1"/><path d="M-132,703L-90,792L106,703Z" fill="#8d91c8" stroke="#8d91c8" fill-opacity="1" stroke-opacity="1"/><path d="M106,703L-90,792L67,874Z" fill="#837ebc" stroke="#837ebc" fill-opacity="1" stroke-opacity="1"/><path d="M106,703L67,874L222,866Z" fill="#746fb2" stroke="#746fb2" fill-opacity="1" stroke-opacity="1"/><path d="M106,703L222,866L280,744Z" fill="#6b76b6" stroke="#6b76b6" fill-opacity="1" stroke-opacity="1"/><path d="M280,744L222,866L428,788Z" fill="#5c68ac" stroke="#5c68ac" fill-opacity="1" stroke-opacity="1"/><path d="M280,744L428,788L400,728Z" fill="#536eb3" stroke="#536eb3" fill-opacity="1" stroke-opacity="1"/><path d="M400,728L428,788L466,649Z" fill="#4970b6" stroke="#4970b6" fill-opacity="1" stroke-opacity="1"/><path d="M466,649L428,788L588,788Z" fill="#4065af" stroke="#4065af" fill-opacity="1" stroke-opacity="1"/><path d="M466,649L588,788L705,660Z" fill="#3467b2" stroke="#3467b2" fill-opacity="1" stroke-opacity="1"/><path d="M705,660L588,788L679,893Z" fill="#2a4b9f" stroke="#2a4b9f" fill-opacity="1" stroke-opacity="1"/><path d="M705,660L679,893L795,680Z" fill="#234da2" stroke="#234da2" fill-opacity="1" stroke-opacity="1"/><path d="M795,680L679,893L845,834Z" fill="#1d3894" stroke="#1d3894" fill-opacity="1" stroke-opacity="1"/><path d="M795,680L845,834L937,823Z" fill="#17328e" stroke="#17328e" fill-opacity="1" stroke-opacity="1"/><path d="M795,680L937,823L990,634Z" fill="#143b95" stroke="#143b95" fill-opacity="1" stroke-opacity="1"/><path d="M990,634L937,823L1108,884Z" fill="#0f1b7d" stroke="#0f1b7d" fill-opacity="1" stroke-opacity="1"/><path d="M990,634L1108,884L1149,608Z" fill="#112283" stroke="#112283" fill-opacity="1" stroke-opacity="1"/><path d="M-90,792L-40,996L67,874Z" fill="#887bab" stroke="#887bab" fill-opacity="1" stroke-opacity="1"/><path d="M67,874L-40,996L74,1020Z" fill="#7f779b" stroke="#7f779b" fill-opacity="1" stroke-opacity="1"/><path d="M67,874L74,1020L204,1024Z" fill="#747196" stroke="#747196" fill-opacity="1" stroke-opacity="1"/><path d="M67,874L204,1024L222,866Z" fill="#6e6d9d" stroke="#6e6d9d" fill-opacity="1" stroke-opacity="1"/><path d="M222,866L204,1024L389,940Z" fill="#5f6794" stroke="#5f6794" fill-opacity="1" stroke-opacity="1"/><path d="M222,866L389,940L428,788Z" fill="#55619f" stroke="#55619f" fill-opacity="1" stroke-opacity="1"/><path d="M428,788L389,940L505,971Z" fill="#445895" stroke="#445895" fill-opacity="1" stroke-opacity="1"/><path d="M428,788L505,971L588,788Z" fill="#3c529b" stroke="#3c529b" fill-opacity="1" stroke-opacity="1"/><path d="M588,788L505,971L617,967Z" fill="#324c8c" stroke="#324c8c" fill-opacity="1" stroke-opacity="1"/><path d="M588,788L617,967L679,893Z" fill="#2b468e" stroke="#2b468e" fill-opacity="1" stroke-opacity="1"/><path d="M679,893L617,967L810,1042Z" fill="#213e7a" stroke="#213e7a" fill-opacity="1" stroke-opacity="1"/><path d="M679,893L810,1042L845,834Z" fill="#1b357d" stroke="#1b357d" fill-opacity="1" stroke-opacity="1"/><path d="M845,834L810,1042L990,952Z" fill="#12256e" stroke="#12256e" fill-opacity="1" stroke-opacity="1"/><path d="M845,834L990,952L937,823Z" fill="#101f77" stroke="#101f77" fill-opacity="1" stroke-opacity="1"/><path d="M937,823L990,952L1108,884Z" fill="#0d126a" stroke="#0d126a" fill-opacity="1" stroke-opacity="1"/><path d="M1108,884L990,952L1070,1038Z" fill="#0c0c57" stroke="#0c0c57" fill-opacity="1" stroke-opacity="1"/><path d="M204,1024L810,1042L505,971Z" fill="#39527d" stroke="#39527d" fill-opacity="1" stroke-opacity="1"/><path d="M204,1024L505,971L389,940Z" fill="#4f5f89" stroke="#4f5f89" fill-opacity="1" stroke-opacity="1"/><path d="M505,971L810,1042L617,967Z" fill="#274479" stroke="#274479" fill-opacity="1" stroke-opacity="1"/><path d="M810,1042L1070,1038L990,952Z" fill="#0b1a59" stroke="#0b1a59" fill-opacity="1" stroke-opacity="1"/></g></svg>